<mxfile host="app.diagrams.net" modified="2023-04-13T11:50:00.391Z" agent="Mozilla/5.0 (Windows NT 10.0; Win64; x64) AppleWebKit/537.36 (KHTML, like Gecko) Chrome/111.0.0.0 Safari/537.36" etag="rgoG1cPvQjcGd6QZr_DC" version="21.1.5" type="github">
  <diagram name="第 1 页" id="nrrgJd85aSkOdo_KzUjb">
    <mxGraphModel dx="1687" dy="899" grid="1" gridSize="10" guides="1" tooltips="1" connect="1" arrows="1" fold="1" page="1" pageScale="1" pageWidth="827" pageHeight="1169" math="0" shadow="0">
      <root>
        <mxCell id="0" />
        <mxCell id="1" parent="0" />
        <mxCell id="e6y0wfFueOvEQc84NtfS-1" value="&lt;font style=&quot;font-size: 24px;&quot;&gt;DataBase&lt;/font&gt;" style="rounded=1;whiteSpace=wrap;html=1;strokeColor=#b4a996;" vertex="1" parent="1">
          <mxGeometry x="10" y="320" width="150" height="60" as="geometry" />
        </mxCell>
        <mxCell id="e6y0wfFueOvEQc84NtfS-2" value="&lt;font style=&quot;font-size: 24px;&quot;&gt;Partition 2&lt;/font&gt;" style="rounded=1;whiteSpace=wrap;html=1;strokeColor=#b4a996;" vertex="1" parent="1">
          <mxGeometry x="410" y="320" width="150" height="60" as="geometry" />
        </mxCell>
        <mxCell id="e6y0wfFueOvEQc84NtfS-3" value="&lt;font style=&quot;font-size: 24px;&quot;&gt;Bucket 0N&lt;/font&gt;" style="rounded=1;whiteSpace=wrap;html=1;strokeColor=#b4a996;" vertex="1" parent="1">
          <mxGeometry x="650" y="230" width="150" height="50" as="geometry" />
        </mxCell>
        <mxCell id="e6y0wfFueOvEQc84NtfS-4" value="&lt;font style=&quot;font-size: 24px;&quot;&gt;Partition M&lt;/font&gt;" style="rounded=1;whiteSpace=wrap;html=1;strokeColor=#b4a996;" vertex="1" parent="1">
          <mxGeometry x="410" y="470" width="150" height="60" as="geometry" />
        </mxCell>
        <mxCell id="e6y0wfFueOvEQc84NtfS-5" value="&lt;font style=&quot;font-size: 24px;&quot;&gt;Partition 1&lt;/font&gt;" style="rounded=1;whiteSpace=wrap;html=1;strokeColor=#b4a996;" vertex="1" parent="1">
          <mxGeometry x="410" y="165" width="150" height="60" as="geometry" />
        </mxCell>
        <mxCell id="e6y0wfFueOvEQc84NtfS-6" value="&lt;font style=&quot;font-size: 24px;&quot;&gt;Bucket 02&lt;/font&gt;" style="rounded=1;whiteSpace=wrap;html=1;strokeColor=#b4a996;" vertex="1" parent="1">
          <mxGeometry x="650" y="170" width="150" height="50" as="geometry" />
        </mxCell>
        <mxCell id="e6y0wfFueOvEQc84NtfS-7" value="&lt;font style=&quot;font-size: 24px;&quot;&gt;Bucket 01&lt;/font&gt;" style="rounded=1;whiteSpace=wrap;html=1;strokeColor=#b4a996;" vertex="1" parent="1">
          <mxGeometry x="650" y="110" width="150" height="50" as="geometry" />
        </mxCell>
        <mxCell id="e6y0wfFueOvEQc84NtfS-8" value="&lt;font style=&quot;font-size: 24px;&quot;&gt;Table&lt;/font&gt;" style="rounded=1;whiteSpace=wrap;html=1;strokeColor=#b4a996;" vertex="1" parent="1">
          <mxGeometry x="210" y="320" width="150" height="60" as="geometry" />
        </mxCell>
        <mxCell id="e6y0wfFueOvEQc84NtfS-9" value="分区表、桶数量可以在创建时指定" style="text;html=1;strokeColor=none;fillColor=none;align=center;verticalAlign=middle;whiteSpace=wrap;rounded=0;" vertex="1" parent="1">
          <mxGeometry x="55" y="110" width="265" height="70" as="geometry" />
        </mxCell>
      </root>
    </mxGraphModel>
  </diagram>
</mxfile>
